<?xml version="1.0" encoding="utf-8"?>
<!-- Generator: Adobe Illustrator 27.5.0, SVG Export Plug-In . SVG Version: 6.00 Build 0)  -->
<svg version="1.1" id="Layer_1" xmlns="http://www.w3.org/2000/svg" xmlns:xlink="http://www.w3.org/1999/xlink" x="0px" y="0px"
	 viewBox="0 0 4000 4000" style="enable-background:new 0 0 4000 4000;" xml:space="preserve">
<g>
	<rect style="fill:#D8D0CA;" width="4000" height="4000"/>
	<g>
		<g>
			<path style="fill:#775757;" d="M950.323,2471.971c0,122.073-45.271,221.011-101.087,221.011H653.01
				c-55.815,0-101.087-98.938-101.087-221.011c0-37.876,4.347-73.503,12.093-104.634c16.989-69.307,50.518-116.377,88.994-116.377
				h196.226C905.052,2250.96,950.323,2349.897,950.323,2471.971z"/>
		</g>
		<g>
			<path style="fill:#F9D230;" d="M2124.784,1313.499l-341.386-35.178l-62.71,9.894L534.085,1475.548
				c0,0,7.396-121.873,115.927-166.495l1058.684-263.485l285.87-71.155L2124.784,1313.499z"/>
		</g>
		<g>
			<path style="fill:#FFA403;" d="M1720.688,1241.645v46.57L534.085,1475.548c0,0,7.396-121.873,115.927-166.495l1058.684-263.485
				h0.1c0,0-733.688,193.129-793.151,253.59C856.182,1359.62,1720.688,1241.645,1720.688,1241.645z"/>
		</g>
		<g>
			<path style="fill:#F9D230;" d="M3542.742,2560.015c-0.2,4.198-0.45,8.395-0.65,12.692l-33.929,187.332l-305.508,67.357
				l-855.412,21.237l-142.16,3.547l-602.571-644.194v-865.155l125.122-44.622l55.764-19.888
				c472.653,32.33,912.726,69.507,1297.833,114.978l83.548,405.995l37.876,184.135c0,0,278.975,140.312,320.598,224.558
				C3555.834,2280.641,3551.336,2390.372,3542.742,2560.015z"/>
		</g>
		<g style="opacity:0.64;">
			<path style="fill:#FFFFFF;" d="M3542.742,2560.015c-11.443-38.075-14.64-147.007-37.626-278.673
				c-37.776-216.664-507.131-297.913-507.131-297.913l99.537-177.839c0,0,19.838-4.647,67.258-6.296l37.876,184.135
				c0,0,278.975,140.312,320.598,224.558C3555.834,2280.641,3551.336,2390.372,3542.742,2560.015z"/>
		</g>
		<g>
			<path style="fill:#FFA403;" d="M2347.244,2848.633l-142.16,3.547l-602.571-644.194v-865.155l125.122-44.622l22.386,103.884
				l195.377,538.761c0,0,309.255,141.261,333.041,283.972c23.785,142.759,54.565,352.777,54.565,352.777
				S2347.294,2702.725,2347.244,2848.633z"/>
		</g>
		<g>
			<g>
				<path style="fill:#33D7FC;" d="M3202.656,1983.428l-354.777-11.993h-0.05l-177.838-6.047l-160.649-5.446l-345.882-11.693
					l-218.063-7.395l-94.141,6.496l-177.388-13.142v-549.803l127.82-20.837c18.988,0.4,37.925,0.8,56.914,1.349
					c218.662,5.596,436.226,17.839,652.64,37.176c110.63,9.844,220.961,21.587,330.942,35.228
					c50.518,6.246,100.986,12.892,151.354,19.987c34.678,4.847,69.356,9.944,103.984,15.191l16.59,80.749v0.05l78.5,381.36
					L3202.656,1983.428z"/>
			</g>
		</g>
		<defs>
			<filter id="Adobe_OpacityMaskFilter" filterUnits="userSpaceOnUse" x="2163.46" y="1402.093" width="678.723" height="557.85">
				<feFlood  style="flood-color:white;flood-opacity:1" result="back"/>
				<feBlend  in="SourceGraphic" in2="back" mode="normal"/>
			</filter>
		</defs>
		<mask maskUnits="userSpaceOnUse" x="2163.46" y="1402.093" width="678.723" height="557.85" id="SVGID_1_">
			<g style="filter:url(#Adobe_OpacityMaskFilter);">
				<defs>
					
						<filter id="Adobe_OpacityMaskFilter_00000005972416909129613480000011100537796219039658_" filterUnits="userSpaceOnUse" x="2163.46" y="1402.093" width="678.723" height="557.85">
						<feFlood  style="flood-color:white;flood-opacity:1" result="back"/>
						<feBlend  in="SourceGraphic" in2="back" mode="normal"/>
					</filter>
				</defs>
				<mask maskUnits="userSpaceOnUse" x="2163.46" y="1402.093" width="678.723" height="557.85" id="SVGID_1_">
					<g style="filter:url(#Adobe_OpacityMaskFilter_00000005972416909129613480000011100537796219039658_);">
					</g>
				</mask>
				
					<linearGradient id="SVGID_00000182510017292928360570000017376179924392651421_" gradientUnits="userSpaceOnUse" x1="2566.8809" y1="1275.213" x2="2446.4607" y2="2060.1743">
					<stop  offset="0" style="stop-color:#FFFFFF"/>
					<stop  offset="1" style="stop-color:#000000"/>
				</linearGradient>
				<path style="mask:url(#SVGID_1_);fill:url(#SVGID_00000182510017292928360570000017376179924392651421_);" d="
					M2842.183,1437.322l-332.841,522.622l-345.882-11.693l347.782-546.157C2621.871,1411.937,2732.202,1423.68,2842.183,1437.322z"
					/>
			</g>
		</mask>
		
			<linearGradient id="SVGID_00000152967721689737466190000008910768294146529676_" gradientUnits="userSpaceOnUse" x1="2566.8809" y1="1275.213" x2="2446.4607" y2="2060.1743">
			<stop  offset="0" style="stop-color:#FFFFFF"/>
			<stop  offset="1" style="stop-color:#FFFFFF"/>
		</linearGradient>
		<path style="opacity:0.69;fill:url(#SVGID_00000152967721689737466190000008910768294146529676_);" d="M2842.183,1437.322
			l-332.841,522.622l-345.882-11.693l347.782-546.157C2621.871,1411.937,2732.202,1423.68,2842.183,1437.322z"/>
		<defs>
			
				<filter id="Adobe_OpacityMaskFilter_00000003068201232818588610000008995842571710834833_" filterUnits="userSpaceOnUse" x="2669.991" y="1457.309" width="444.121" height="514.127">
				<feFlood  style="flood-color:white;flood-opacity:1" result="back"/>
				<feBlend  in="SourceGraphic" in2="back" mode="normal"/>
			</filter>
		</defs>
		
			<mask maskUnits="userSpaceOnUse" x="2669.991" y="1457.309" width="444.121" height="514.127" id="SVGID_00000170981949303214634600000013419142803490869152_">
			<g style="filter:url(#Adobe_OpacityMaskFilter_00000003068201232818588610000008995842571710834833_);">
				<defs>
					
						<filter id="Adobe_OpacityMaskFilter_00000008149227664691810780000000706997496246117055_" filterUnits="userSpaceOnUse" x="2669.991" y="1457.309" width="444.121" height="514.127">
						<feFlood  style="flood-color:white;flood-opacity:1" result="back"/>
						<feBlend  in="SourceGraphic" in2="back" mode="normal"/>
					</filter>
				</defs>
				
					<mask maskUnits="userSpaceOnUse" x="2669.991" y="1457.309" width="444.121" height="514.127" id="SVGID_00000170981949303214634600000013419142803490869152_">
					<g style="filter:url(#Adobe_OpacityMaskFilter_00000008149227664691810780000000706997496246117055_);">
					</g>
				</mask>
				
					<linearGradient id="SVGID_00000034086860862681372860000015926902963139278720_" gradientUnits="userSpaceOnUse" x1="2957.137" y1="1335.0817" x2="2836.7166" y2="2120.0435">
					<stop  offset="0" style="stop-color:#FFFFFF"/>
					<stop  offset="1" style="stop-color:#000000"/>
				</linearGradient>
				
					<path style="mask:url(#SVGID_00000170981949303214634600000013419142803490869152_);fill:url(#SVGID_00000034086860862681372860000015926902963139278720_);" d="
					M3114.112,1553.248v0.05l-266.233,418.137h-0.05l-177.838-6.047l323.546-508.08c34.678,4.847,69.356,9.944,103.984,15.191
					L3114.112,1553.248z"/>
			</g>
		</mask>
		
			<linearGradient id="SVGID_00000083773583903634458890000008137442973664828048_" gradientUnits="userSpaceOnUse" x1="2957.137" y1="1335.0817" x2="2836.7166" y2="2120.0435">
			<stop  offset="0" style="stop-color:#FFFFFF"/>
			<stop  offset="1" style="stop-color:#FFFFFF"/>
		</linearGradient>
		<path style="opacity:0.69;fill:url(#SVGID_00000083773583903634458890000008137442973664828048_);" d="M3114.112,1553.248v0.05
			l-266.233,418.137h-0.05l-177.838-6.047l323.546-508.08c34.678,4.847,69.356,9.944,103.984,15.191L3114.112,1553.248z"/>
		<g>
			<path style="fill:#1BABEA;" d="M3202.656,1983.428l-1257.259-42.573l-94.141,6.496l-177.388-13.142v-549.803l127.82-20.837
				c18.988,0.4,37.925,0.8,56.914,1.349c16.09,75.203,68.196,434.467,115.666,498.177c55.365,74.303,375.725,39.085,744.193,77.761
				c267.282,28.032,413.79,7.345,474.151-6.196L3202.656,1983.428z"/>
		</g>
		<g>
			<polygon style="fill:#E1EDEF;" points="3401.357,2628.232 2453.014,2677.123 2468.721,2300.174 3410.277,2300.174 			"/>
		</g>
		<g>
			<path style="fill:#660107;" d="M2453.015,2689.615c-3.284,0-6.446-1.293-8.788-3.616c-2.499-2.474-3.84-5.885-3.694-9.398
				l15.708-376.95c0.278-6.69,5.787-11.97,12.482-11.97h941.556c3.372,0,6.602,1.361,8.954,3.782
				c2.352,2.416,3.626,5.68,3.533,9.052l-8.92,328.06c-0.176,6.514-5.333,11.799-11.843,12.136l-948.344,48.89
				C2453.444,2689.61,2453.23,2689.615,2453.015,2689.615z M2480.708,2312.665l-14.639,351.278l923.115-47.592l8.257-303.686
				H2480.708z M3401.359,2628.233h0.049H3401.359z"/>
		</g>
		<g>
			<polygon style="fill:#8E828B;" points="2516.652,2350.143 3358.934,2350.143 3352.664,2580.706 2505.223,2624.399 			"/>
		</g>
		<g>
			<path style="fill:#660107;" d="M2505.223,2634.391c-2.625,0-5.158-1.034-7.032-2.894c-2.001-1.976-3.069-4.704-2.952-7.515
				l11.428-274.256c0.219-5.353,4.626-9.579,9.984-9.579h842.282c2.699,0,5.28,1.088,7.164,3.025
				c1.879,1.932,2.898,4.543,2.825,7.242l-6.271,230.563c-0.142,5.211-4.265,9.437-9.477,9.706l-847.44,43.693
				C2505.565,2634.386,2505.394,2634.391,2505.223,2634.391z M2526.236,2360.135l-10.57,253.717l827.258-42.654l5.743-211.063
				H2526.236z"/>
		</g>
		<g>
			<path style="fill:#E1EDEF;" d="M3548.988,2394.319l-6.046,103.685l-4.398,74.953l-71.205,4.647v-159.949
				c0-10.593,8.295-19.337,18.838-19.887L3548.988,2394.319z"/>
		</g>
		<g>
			<polygon style="fill:#F76D31;" points="3542.942,2498.004 3538.544,2572.957 3467.339,2577.604 3467.339,2501.402 
				3471.337,2501.003 			"/>
		</g>
		<g>
			<ellipse style="fill:#8E7575;" cx="653.004" cy="2471.958" rx="101.093" ry="221.018"/>
		</g>
		<g>
			<path style="fill:#775757;" d="M847.738,2517.243c0,0-93.891-30.381-156.801-151.555c-53.666-103.435-111.18-23.935-126.92,1.649
				c16.989-69.307,50.518-116.377,88.994-116.377h118.775C836.844,2320.466,847.738,2517.243,847.738,2517.243z"/>
		</g>
		<g>
			<path style="fill:#660107;" d="M849.244,2705.469H653.005c-63.695,0-113.586-102.572-113.586-233.51
				c0-130.938,49.891-233.51,113.586-233.51h196.239c63.695,0,113.586,102.572,113.586,233.51
				C962.83,2602.897,912.939,2705.469,849.244,2705.469z M653.005,2263.433c-42.791,0-88.602,83.79-88.602,208.526
				c0,124.736,45.811,208.526,88.602,208.526h196.239c42.791,0,88.602-83.79,88.602-208.526
				c0-124.736-45.811-208.526-88.602-208.526H653.005z"/>
		</g>
		<g>
			<path style="fill:#660107;" d="M653.005,2702.971c-62.29,0-111.087-101.474-111.087-231.012s48.797-231.012,111.087-231.012
				s111.087,101.474,111.087,231.012S715.295,2702.971,653.005,2702.971z M653.005,2260.934c-49.383,0-91.1,96.639-91.1,211.025
				s41.717,211.024,91.1,211.024s91.1-96.638,91.1-211.024S702.388,2260.934,653.005,2260.934z"/>
		</g>
		<g>
			<path style="fill:#660107;" d="M814.386,2583.165c-11.583,46.679-36.218,115.78-93.29,119.806
				c-5.519,0.205-10.16-4.102-10.365-9.62c-0.227-5.676,4.39-10.426,10.067-10.372c45.675-1.109,70.832-64.766,82.541-102.71
				C805.422,2573.252,816.008,2575.959,814.386,2583.165L814.386,2583.165z"/>
		</g>
		<g>
			<path style="fill:#660107;" d="M866.881,2626.616c-10.211,25.326-24.392,51.913-48.855,67.157
				c-9.115,5.392-37.841,18.009-40.002-0.396c-0.221-5.52,4.074-10.174,9.594-10.394c33.966,0.336,54.728-33.572,68.843-61.028
				C859.733,2615.534,869.48,2619.873,866.881,2626.616L866.881,2626.616z"/>
		</g>
		<g>
			<ellipse style="fill:#F9D230;" cx="650.402" cy="2468.663" rx="55.378" ry="124.137"/>
		</g>
		<g>
			<path style="fill:#660107;" d="M650.404,2602.794c-37.272,0-65.374-57.664-65.374-134.129c0-76.47,28.102-134.134,65.374-134.134
				c37.267,0,65.369,57.664,65.369,134.134C715.773,2545.131,687.671,2602.794,650.404,2602.794z M650.404,2354.518
				c-21.466,0-45.387,46.88-45.387,114.147s23.921,114.142,45.387,114.142c21.466,0,45.382-46.875,45.382-114.142
				S671.87,2354.518,650.404,2354.518z"/>
		</g>
		<g>
			<path style="fill:#660107;" d="M630.519,2537.752c-23.179,0-40.658-31.621-40.658-73.547c0-41.932,17.479-73.552,40.658-73.552
				c23.174,0,40.653,31.621,40.653,73.552C671.172,2506.132,653.693,2537.752,630.519,2537.752z M630.519,2410.64
				c-8.227,0-20.671,21.364-20.671,53.565c0,32.197,12.443,53.56,20.671,53.56c8.227,0,20.666-21.363,20.666-53.56
				C651.185,2432.004,638.746,2410.64,630.519,2410.64z"/>
		</g>
		<g>
			<path style="fill:#660107;" d="M623.995,2359.522c10.684,27.586,25.681,26.305,44.99-3.845
				C651.652,2343.51,636.972,2346.613,623.995,2359.522z"/>
		</g>
		<g>
			<path style="fill:#660107;" d="M700.949,2431.497c-30.457,26.978-22.593,50.409,0,72.475V2431.497z"/>
		</g>
		<g>
			<path style="fill:#660107;" d="M671.974,2583.026c-22.848-30.159-40.72-36.832-51.467-9.885
				C636.08,2587.023,653.075,2591.396,671.974,2583.026z"/>
		</g>
		<g>
			<path style="fill:#775757;" d="M1850.856,2805.411c0,0-98.688-285.721-165.595-294.214
				c-66.908-8.496-104.584,116.026-104.584,116.026l-3.798-4.597c22.136-111.979,73.154-190.381,132.467-190.381
				c56.914,0,106.133,72.055,129.619,176.689C1848.158,2709.371,1850.856,2805.411,1850.856,2805.411z"/>
		</g>
		<g>
			<path style="fill:#660107;" d="M2010.784,3021.082c-18.062,26.483-44.983,50.802-79.469,52.132
				c-13.187,0.19-13.984-19.138-0.794-20.002c28.275,1.899,53.443-17.649,71.142-39.005
				C2006.299,3008.685,2014.809,3015.095,2010.784,3021.082L2010.784,3021.082z"/>
		</g>
		<g>
			<g>
				<path style="fill:#775757;" d="M2136.677,2747.747c0,174.241-64.61,315.451-144.309,315.451h-283.022
					c-79.65,0-144.259-141.21-144.259-315.451c0-174.241,64.609-315.502,144.259-315.502c3.948,0,7.845,0.35,11.692,1v-1h271.33
					C2072.067,2432.245,2136.677,2573.506,2136.677,2747.747z"/>
			</g>
			<g>
				<path style="fill:#8E7575;" d="M1853.655,2747.747c0,174.241-64.609,315.451-144.309,315.451
					c-79.65,0-144.259-141.21-144.259-315.451c0-44.471,4.198-86.745,11.792-125.121c22.136-111.979,73.154-190.381,132.467-190.381
					c56.914,0,106.133,72.055,129.619,176.689C1848.358,2650.808,1853.655,2697.928,1853.655,2747.747z"/>
			</g>
			<g>
				<path style="fill:#660107;" d="M1709.362,3073.207c-86.518,0-154.288-142.962-154.288-325.464
					c0-182.502,67.77-325.464,154.288-325.464s154.293,142.962,154.293,325.464
					C1863.654,2930.245,1795.88,3073.207,1709.362,3073.207z M1709.362,2442.266c-72.796,0-134.3,139.893-134.3,305.477
					s61.504,305.477,134.3,305.477c72.801,0,134.305-139.892,134.305-305.477S1782.163,2442.266,1709.362,2442.266z"/>
			</g>
			<g>
				<path style="fill:#660107;" d="M1915.479,2900.872c-15.822,65.37-52.193,167.552-132.077,172.336
					c-5.519,0.181-10.138-4.145-10.32-9.663c-0.211-5.755,4.573-10.518,10.32-10.325c68.058-2.182,105.063-98.622,121.002-155.131
					C1906.349,2891.009,1917.107,2893.575,1915.479,2900.872L1915.479,2900.872z"/>
			</g>
			<g>
				<path style="fill:#660107;" d="M1979.692,2934.725c-18.441,57.202-53.041,134.378-122.251,138.483
					c-13.408,0.014-13.67-19.711-0.215-19.991c59.129-1.201,93.438-73.644,111.629-122.091
					C1971.359,2924.232,1981.809,2927.61,1979.692,2934.725L1979.692,2934.725z"/>
			</g>
			<g>
				<path style="fill:#660107;" d="M1992.367,3075.69h-283.02c-87.899,0-156.752-144.05-156.752-327.943
					c0-183.922,68.853-327.997,156.752-327.997c2.762,0,5.568,0.146,8.388,0.439c1.054-0.288,2.162-0.439,3.304-0.439h271.328
					c87.928,0,156.801,144.074,156.801,327.997C2149.168,2931.64,2080.295,3075.69,1992.367,3075.69z M1709.347,2444.735
					c-71.425,0-131.768,138.76-131.768,303.012c0,164.223,60.343,302.959,131.768,302.959h283.02
					c71.454,0,131.817-138.736,131.817-302.959c0-164.252-60.363-303.012-131.817-303.012h-266.429
					c-2.177,0.932-4.592,1.23-6.978,0.825C1715.71,2445.013,1712.475,2444.735,1709.347,2444.735z"/>
			</g>
		</g>
		<g>
			<ellipse style="fill:#F9D230;" cx="1705.65" cy="2743.038" rx="79.045" ry="177.188"/>
		</g>
		<g>
			<path style="fill:#660107;" d="M1705.648,2930.22c-49.925,0-89.036-82.219-89.036-187.182
				c0-104.963,39.111-187.182,89.036-187.182c49.929,0,89.041,82.219,89.041,187.182
				C1794.689,2848.002,1755.578,2930.22,1705.648,2930.22z M1705.648,2575.844c-33.343,0-69.048,67.184-69.048,167.195
				s35.705,167.195,69.048,167.195c33.348,0,69.053-67.184,69.053-167.195S1738.996,2575.844,1705.648,2575.844z"/>
		</g>
		<g>
			<path style="fill:#660107;" d="M1677.268,2837.383c-30.65,0-53.76-43.298-53.76-100.713c0-57.415,23.11-100.708,53.76-100.708
				s53.76,43.293,53.76,100.708C1731.028,2794.085,1707.917,2837.383,1677.268,2837.383z M1677.268,2655.95
				c-15.942,0-33.773,34.519-33.773,80.721c0,46.201,17.831,80.725,33.773,80.725c15.942,0,33.773-34.524,33.773-80.725
				C1711.04,2690.469,1693.21,2655.95,1677.268,2655.95z"/>
		</g>
		<g>
			<path style="fill:#660107;" d="M1667.958,2587.254c15.25,39.375,36.656,37.547,64.217-5.489
				C1707.435,2564.4,1686.481,2568.828,1667.958,2587.254z"/>
		</g>
		<g>
			<path style="fill:#660107;" d="M1777.798,2689.988c-43.472,38.507-32.248,71.952,0,103.448V2689.988z"/>
		</g>
		<g>
			<path style="fill:#F9D230;" d="M2248.806,2758.99l-207.27,188.381l-75.803-33.129v-22.136l-34.278-187.582l-106.983-265.734
				c0,0-131.817-74.203-204.121,59.513c-72.354,133.716-53.017,305.457-53.017,305.457l-718.098-247.544
				c-83.697-256.289-169.343-425.732-262.035-271.878c-18.538,54.066-30.381,107.931-35.278,161.549L510.3,2426.05v-501.485
				l23.785-449.017l1191.251-188.032l58.063-9.195l18.289,85.247l-57.914,9.444l-69.906,11.393v556.45l177.388,6.496
				c0,0,308.256,123.871,371.666,252.74C2286.333,2328.91,2248.806,2758.99,2248.806,2758.99z"/>
		</g>
		<g>
			<path style="fill:#FFA403;" d="M2248.806,2758.99l-207.27,188.381l-75.803-33.129v-22.136l-34.278-187.582l-106.983-265.734
				c0,0-131.817-74.203-204.121,59.513c-72.354,133.716-53.017,305.457-53.017,305.457l-718.098-247.544
				c-83.697-256.289-169.343-425.732-262.035-271.878c-18.538,54.066-30.381,107.931-35.278,161.549L510.3,2426.05v-501.485
				l23.785-449.017l1191.251-188.032l18.438,85.496l-69.906,11.393v556.45l177.388,6.496c0,0,308.256,123.871,371.666,252.74
				C2286.333,2328.91,2248.806,2758.99,2248.806,2758.99z"/>
		</g>
		<g>
			<polyline style="fill:#D66805;" points="1118.205,1576.706 1523.428,1564.769 1517.306,1344.283 1127.387,1393.059 			"/>
		</g>
		<g>
			<path style="fill:#FFFFFF;" d="M608.388,2009.862l494.889,37.777l-1.449,46.52l-472.353-44.722
				C617.482,2027.551,608.388,2009.862,608.388,2009.862z"/>
		</g>
		<g>
			<path style="fill:#FFFFFF;" d="M646.914,2080.617l453.765,49.918l-1.749,53.816l-418.387-53.966
				C673.347,2124.489,660.156,2103.453,646.914,2080.617z"/>
		</g>
		<g>
			<polygon style="fill:#FFFFFF;" points="1994.566,2178.754 1505.474,2132.433 1507.222,2078.418 1958.288,2112.846 			"/>
		</g>
		<g>
			<polygon style="fill:#FFFFFF;" points="2066.321,2309.173 1502.026,2236.369 1504.025,2174.907 2023.898,2232.072 			"/>
		</g>
		<g>
			<polygon style="fill:#FFFFFF;" points="1506.123,2078.368 1504.624,2132.335 1162.539,2099.954 1164.089,2052.235 			"/>
		</g>
		<g>
			<polygon style="fill:#8E828B;" points="2573.802,2603.937 2573.802,2740.102 2230.368,2760.039 2100.999,2728.809 
				2100.999,2570.809 2257.501,2611.282 2285.134,2610.634 			"/>
		</g>
		<g>
			<path style="fill:#775757;" d="M2573.802,2717.566v22.536l-343.434,19.938l-129.369-31.23v-158l156.502,40.474l27.633-0.649
				c-1.949,9.293-12.692,67.906,15.09,87.945C2324.508,2716.116,2503.946,2717.616,2573.802,2717.566z"/>
		</g>
		<g>
			<polygon style="fill:#FFFFFF;" points="1503.475,2174.808 1501.827,2236.318 1159.592,2192.197 1161.34,2137.181 			"/>
		</g>
		<g>
			<path style="fill:#660107;" d="M1736.798,2908.181c-32.612-43.048-58.121-52.573-73.462-14.11
				C1685.564,2913.886,1709.821,2920.128,1736.798,2908.181z"/>
		</g>
		<g>
			<path style="fill:#660107;" d="M2041.55,2959.86c-1.693,0-3.391-0.342-5.002-1.044l-75.817-33.129
				c-4.548-1.991-7.49-6.48-7.49-11.448v-21.027l-33.826-185.177l-104.758-260.227c-13.185-6.349-59.357-25.853-105.666-12.385
				c-31.835,9.252-57.966,32.411-77.671,68.829c-69.575,128.576-51.75,296.449-51.559,298.128c0.478,4.26-1.264,8.466-4.606,11.145
				c-3.348,2.679-7.832,3.46-11.877,2.059l-718.103-247.554c-3.704-1.274-6.588-4.211-7.803-7.929
				c-25.326-77.53-102.397-313.46-174.504-321.668c-20.612-2.264-42.185,14.888-64.291,51.203
				c-17.982,52.735-29.493,105.676-34.227,157.367c-0.371,4.07-2.708,7.7-6.256,9.72c-3.557,2.02-7.876,2.171-11.555,0.42
				l-41.629-19.822c-4.348-2.069-7.12-6.461-7.12-11.277v-501.503c0-0.22,0.005-0.442,0.02-0.661l23.789-448.973
				c0.312-5.89,4.699-10.757,10.526-11.677l1249.331-197.232c6.549-1.035,12.77,3.228,14.161,9.715l18.299,85.237
				c0.717,3.345,0.034,6.839-1.898,9.667c-1.927,2.825-4.933,4.736-8.31,5.287l-117.367,19.104v533.802l165.374,6.041
				c1.444,0.054,2.864,0.356,4.206,0.893c12.765,5.134,313.416,127.188,378.214,258.804
				c64.232,130.475,28.659,547.81,27.112,565.513c-0.273,3.128-1.713,6.041-4.041,8.154l-207.252,188.392
				C2047.606,2958.742,2044.6,2959.86,2041.55,2959.86z M1978.226,2906.066l60.909,26.614l197.625-179.638
				c3.845-47.651,32.572-430.422-25.043-547.453c-57.996-117.807-336.722-234.967-363.131-245.849l-175.193-6.4
				c-6.719-0.246-12.038-5.763-12.038-12.485v-556.469c0-6.124,4.441-11.345,10.487-12.331l114.889-18.702l-13.058-60.833
				l-1227.66,193.811l-23.237,438.542v493.286l18.567,8.837c5.792-48.417,17.216-97.693,34.031-146.729
				c0.288-0.839,0.664-1.64,1.117-2.396c28.239-46.86,57.41-67.828,89.202-64.261c61.187,6.964,119.158,106.603,193.492,332.823
				l694.212,239.322c-2.855-49.432-3.865-182.854,55.946-293.39c23.052-42.605,54.312-69.858,92.915-81.004
				c64.671-18.65,125.805,15.113,128.371,16.557c2.474,1.396,4.401,3.587,5.46,6.222l106.979,265.741
				c0.312,0.781,0.547,1.591,0.698,2.42l34.256,187.533c0.137,0.742,0.205,1.493,0.205,2.245V2906.066z"/>
		</g>
		<g>
			<polygon style="fill:#F9D230;" points="3608.5,2724.362 3608.5,2946.322 2179.8,3040.413 2051.979,2981.35 2051.979,2747.697 
				2100.999,2728.809 2230.368,2760.039 2333.203,2754.043 3543.092,2683.737 3543.092,2663.9 			"/>
		</g>
		<g>
			<path style="fill:#FFA403;" d="M3608.5,2902.101v44.221L2179.8,3040.413l-127.82-59.063v-233.653l49.02-18.888l129.369,31.23
				l102.835-5.996c-24.085,12.892-76.801,41.674-85.846,51.368c-11.793,12.642-14.991,153.103,2.198,167.245
				C2264.996,2985.298,3377.696,2916.541,3608.5,2902.101z"/>
		</g>
		<g>
			<path style="fill:#660107;" d="M2179.813,3052.921c-1.805,0-3.596-0.39-5.241-1.152l-127.854-59.084
				c-4.421-2.044-7.251-6.47-7.251-11.34v-233.623c0-5.168,3.182-9.799,8.003-11.658l49.061-18.894
				c2.362-0.913,4.953-1.073,7.422-0.488l127.532,30.786l1299.109-75.519v-8.037c0-4.963,2.938-9.457,7.486-11.443
				c4.553-2.006,9.842-1.098,13.488,2.269l65.413,60.455c2.557,2.367,4.011,5.69,4.011,9.174v221.936
				c0,6.583-5.104,12.033-11.672,12.463l-1428.686,94.125C2180.359,3052.912,2180.086,3052.921,2179.813,3052.921z
				 M2064.451,2973.357l117.714,54.399l1413.842-93.149v-204.773l-42.473-39.253c-2.098,3.201-5.631,5.387-9.72,5.626
				l-1312.729,76.314c-1.254,0.063-2.469-0.044-3.66-0.327l-125.551-30.308l-37.423,14.41V2973.357z"/>
		</g>
		<g>
			<path style="fill:#660107;" d="M2205.085,2815.385c-1.2,0-2.396-0.215-3.523-0.639l-153.126-57.669
				c-5.163-1.947-7.773-7.71-5.831-12.878c1.952-5.168,7.71-7.764,12.878-5.831l151.14,56.922l1401.301-80.901
				c5.539-0.229,10.238,3.894,10.555,9.403c0.317,5.51-3.894,10.233-9.403,10.555l-1403.414,81.023
				C2205.47,2815.381,2205.275,2815.385,2205.085,2815.385z"/>
		</g>
		<g>
			<path style="fill:#660107;" d="M2179.827,3050.423c-0.361,0-0.722-0.02-1.083-0.059c-5.49-0.591-9.457-5.514-8.866-11.004
				l25.272-235.038c0.59-5.49,5.558-9.447,11.004-8.866c5.49,0.591,9.457,5.514,8.866,11.004l-25.272,235.038
				C2189.197,3046.622,2184.863,3050.423,2179.827,3050.423z"/>
		</g>
		<g>
			<path style="fill:#F9D230;" d="M538.53,2304.634l-2.478,137.765l-41.059-16.424c-11.086-4.435-18.289-15.248-18.109-27.187
				l1.683-111.498L538.53,2304.634z"/>
		</g>
		<g>
			<path style="fill:#660107;" d="M536.052,2454.89c-1.566,0-3.143-0.293-4.641-0.893l-41.058-16.42
				c-15.786-6.314-26.214-21.978-25.96-38.979l1.684-111.497c0.059-3.894,1.932-7.534,5.06-9.852
				c3.133-2.318,7.159-3.04,10.901-1.957l59.962,17.343c5.426,1.566,9.12,6.578,9.023,12.224l-2.479,137.765
				c-0.078,4.104-2.162,7.91-5.582,10.184C540.883,2454.182,538.477,2454.89,536.052,2454.89z M490.812,2303.837l-1.435,95.14
				c-0.103,6.714,4.021,12.907,10.257,15.4l24.252,9.701l1.981-110.106L490.812,2303.837z"/>
		</g>
		<g>
			<path style="fill:#F9D230;" d="M849.237,2556.217H828.45c-87.945-192.129-158.8-297.812-207.919-293.565
				c-14.391,8.095-24.435,23.785-33.329,41.624c0-99.887,71.655-140.162,127.87-126.571c4.947,1.149,9.794,2.799,14.441,4.797
				c61.611,26.784,116.776,97.989,124.522,241.549C856.132,2462.676,854.833,2506.549,849.237,2556.217z"/>
		</g>
		<g>
			<path style="fill:#FFA403;" d="M849.237,2556.217H828.45c-87.945-192.129-158.8-297.812-207.919-293.565
				c-14.391,8.095-24.435,23.785-33.329,41.624c0-99.887,71.655-140.162,127.87-126.571c-15.69,4.897-45.821,17.389-46.071,40.475
				c-0.4,31.18,90.193,184.334,139.862,201.772c20.537,7.247,35.128,6.946,45.172,4.098
				C856.132,2462.676,854.833,2506.549,849.237,2556.217z"/>
		</g>
		<g>
			<path style="fill:#660107;" d="M849.244,2568.714h-20.812c-4.89,0-9.325-2.85-11.36-7.295
				c-111.931-244.617-168.185-285.548-192.847-286.397c-11.302,7.656-19.704,22.481-25.853,34.812
				c-2.586,5.187-8.418,7.9-14.044,6.588c-5.641-1.327-9.628-6.363-9.628-12.16c0-55.024,20.602-98.834,58.015-123.36
				c30.625-20.075,69.634-23.857,101.796-9.872c60.714,26.414,157.957,111.761,127.147,386.583
				C860.95,2563.937,855.602,2568.714,849.244,2568.714z M836.444,2543.73h1.571c25.326-250.004-59.865-326.464-113.469-349.79
				c-24.545-10.672-54.482-7.656-78.134,7.856c-18.948,12.419-32.543,31.416-40.024,55.326c2.503-1.971,5.163-3.772,7.983-5.363
				c1.552-0.878,3.279-1.41,5.055-1.562C653.249,2247.178,712.523,2274.72,836.444,2543.73z"/>
		</g>
		<g>
			<path style="fill:#F9D230;" d="M1965.734,2892.107c-112.079-164.747-193.378-445.771-302.409-443.422
				c-31.83,24.884-53.866,61.762-68.607,107.532c-19.687-190.479,98.089-234.901,211.167-224.208h0.05
				c5.997,0.55,11.943,1.249,17.839,2.098c79.4,15.841,140.811,191.58,149.456,383.809
				C1975.828,2775.779,1973.629,2835.142,1965.734,2892.107z"/>
		</g>
		<g>
			<path style="fill:#FFA403;" d="M1965.734,2892.107c-112.079-164.747-193.378-445.771-302.409-443.422
				c-31.83,24.884-53.866,61.762-68.607,107.532c-19.687-190.479,98.089-234.901,211.167-224.208h0.05
				c0,0-101.436,27.633-105.883,49.418c-4.397,21.837,150.705,208.919,182.935,264.533c20.937,36.127,63.21,60.712,90.243,71.956
				C1975.828,2775.779,1973.629,2835.142,1965.734,2892.107z"/>
		</g>
		<g>
			<path style="fill:#660107;" d="M1965.734,2904.573c-4.075,0-7.969-1.996-10.33-5.465
				c-39.101-57.479-74.201-128.323-108.15-196.839c-60.46-122.032-117.641-237.438-179.604-241.04
				c-26.829,22.242-46.826,54.624-61.055,98.825c-1.815,5.626-7.344,9.242-13.195,8.593c-5.875-0.615-10.516-5.265-11.121-11.14
				c-8.808-85.283,8.417-149.354,51.203-190.422c42.688-40.975,110.892-57.083,192.062-45.328c0.215,0.034,0.434,0.073,0.649,0.112
				c54.033,10.765,102.235,84.971,132.241,203.593c28.634,113.205,35.988,250.902,19.675,368.338
				c-0.712,5.119-4.499,9.271-9.53,10.448C1967.632,2904.465,1966.676,2904.573,1965.734,2904.573z M1664.732,2436.156
				c78.564,0,137.145,118.246,204.91,255.02c28.01,56.532,56.815,114.669,87.738,164.935
				c10.267-106.281,1.976-225.117-23.169-324.527c-27.078-107.042-69.151-176.208-112.59-185.152
				c-42.571-6.104-121.027-9.135-170.84,38.677c-27.356,26.263-42.512,64.413-45.289,113.81
				c13.658-24.696,30.274-44.567,50.154-60.099c2.123-1.664,4.729-2.591,7.427-2.645
				C1663.624,2436.161,1664.18,2436.156,1664.732,2436.156z"/>
		</g>
		<g>
			<path style="fill:#660107;" d="M1685.881,2464.829c-16.958-12.759-38.099-20.558-59.288-22.743
				c-1.754-0.202-3.011-1.788-2.808-3.542c0.168-1.454,1.292-2.568,2.671-2.789c11.717-2.019,23.801-2.446,35.706-1.177
				c12.828,1.393,25.054,3.932,37.154,9.042C1716.683,2452.31,1701.184,2476.825,1685.881,2464.829L1685.881,2464.829z"/>
		</g>
		<g>
			<path style="fill:#660107;" d="M1084.589,2649.86c-2.02,0-4.045-0.488-5.895-1.479c-4.187-2.24-6.744-6.661-6.593-11.409
				l39.775-1254.963c0.122-3.796,1.962-7.332,5.007-9.608c3.04-2.276,6.949-3.045,10.628-2.086l60.86,15.84
				c5.651,1.471,9.525,6.658,9.34,12.492l-38.623,1194.9c-0.127,3.889-2.064,7.505-5.236,9.764l-62.012,44.225
				C1089.683,2649.079,1087.141,2649.86,1084.589,2649.86z M1136.353,1398.435l-22.037,696.115l-2.899,90.197l-13.546,427.802
				l36.442-25.99l38.101-1178.741L1136.353,1398.435z"/>
		</g>
		<g>
			<path style="fill:#660107;" d="M1537.356,2805.914c-1.347,0-2.713-0.22-4.06-0.683l-21.237-7.295
				c-22.554-7.773-37.262-29.005-36.613-52.828l38.877-1426.6c0.185-6.78,5.739-12.153,12.482-12.153
				c0.112,0,0.229,0.003,0.346,0.005c6.895,0.188,12.336,5.931,12.146,12.826l-20.685,759.525l-4.299,157.948l-13.893,509.133
				c-0.351,12.863,7.593,24.325,19.768,28.522l21.227,7.29c6.524,2.24,9.994,9.35,7.754,15.874
				C1547.389,2802.654,1542.543,2805.914,1537.356,2805.914z"/>
		</g>
		<g>
			<path style="fill:#660107;" d="M1185.214,1410.756c-6.017,0-11.321-4.358-12.317-10.491c-1.108-6.81,3.518-13.227,10.326-14.334
				l340.948-55.422c6.837-1.113,13.229,3.518,14.337,10.328c1.108,6.81-3.518,13.227-10.326,14.334l-340.948,55.422
				C1186.556,1410.703,1185.878,1410.756,1185.214,1410.756z"/>
		</g>
		<g>
			<path style="fill:#1BABEA;" d="M1355.518,1467.603l-6.996,193.578l-8.345,231.454c-0.5,14.891-12.742,26.683-27.683,26.683
				h-75.252c-15.69,0-28.282-12.992-27.682-28.682l8.844-246.095l6.097-169.293c0.499-13.542,10.743-24.735,24.184-26.484
				l75.653-9.594C1341.277,1436.971,1356.117,1450.563,1355.518,1467.603z"/>
		</g>
		<g>
			<path style="fill:#33D7FC;" d="M1355.518,1467.603l-6.996,193.578c-44.472-7.795-87.845-13.242-130.118-16.64l6.097-169.293
				c0.499-13.542,10.743-24.735,24.184-26.484l75.653-9.594C1341.277,1436.971,1356.117,1450.563,1355.518,1467.603z"/>
		</g>
		<g>
			<path style="fill:#1BABEA;" d="M1306.705,2581.835c5.566-3.891,8.983-10.17,9.228-16.957l20.098-556.566
				c0.55-15.49-11.693-28.432-27.183-28.682l-75.203-1.399c-15.141-0.3-27.683,11.593-28.232,26.683l-18.988,527.668
				c-0.45,12.592,7.645,23.885,19.688,27.532l81.945,24.704C1294.402,2586.731,1301.274,2585.632,1306.705,2581.835
				L1306.705,2581.835z"/>
		</g>
		<g>
			<path style="fill:#1BABEA;" d="M1507.961,2011.211l-16.292,598.52c-0.497,18.25-18.206,31.035-35.685,25.762l-61.795-18.641
				c-11.972-3.612-20.039-14.797-19.687-27.296l16.37-581.012c0.428-15.184,13.006-27.19,28.193-26.911l61.717,1.132
				C1496.173,1983.048,1508.38,1995.824,1507.961,2011.211z"/>
		</g>
		<g>
			<path style="fill:#1BABEA;" d="M1523.413,1444.018l-6.996,256.888l-5.197,191.48c-0.4,14.991-12.692,26.932-27.683,26.932h-61.66
				c-15.591,0-28.133-12.892-27.683-28.482l6.196-219.562l6.196-219.962c0.35-13.492,10.393-24.735,23.735-26.634l61.462-8.844
				C1508.772,1413.436,1523.862,1426.878,1523.413,1444.018z"/>
		</g>
		<g>
			<path style="fill:#33D7FC;" d="M1523.413,1444.018l-6.996,256.888c-39.425-11.742-78.101-21.537-116.027-29.631l6.196-219.962
				c0.35-13.492,10.393-24.735,23.735-26.634l61.462-8.844C1508.772,1413.436,1523.862,1426.878,1523.413,1444.018z"/>
		</g>
		<g>
			<path style="fill:#660107;" d="M1487.934,2714.072c-1.254,0-2.528-0.19-3.787-0.591l-341.353-108.423
				c-6.573-2.088-10.213-9.11-8.125-15.688c2.089-6.583,9.101-10.218,15.688-8.125l341.353,108.423
				c6.573,2.088,10.213,9.11,8.125,15.688C1498.147,2710.676,1493.228,2714.072,1487.934,2714.072z"/>
		</g>
		<g>
			<path style="fill:#660107;" d="M1312.512,1929.312h-75.289c-10.326,0-19.958-4.092-27.126-11.524
				c-7.168-7.432-10.911-17.206-10.54-27.522l14.961-415.359c0.669-18.533,14.503-33.687,32.899-36.032l75.631-9.642
				c11.009-1.41,21.998,2.084,30.181,9.557c8.183,7.473,12.648,18.111,12.253,29.186l-15.303,425.001
				C1349.442,1913.353,1332.9,1929.312,1312.512,1929.312z M1327.82,1448.918c-0.747,0-1.493,0.046-2.245,0.142l-75.631,9.642
				c-8.637,1.103-15.137,8.22-15.449,16.923l-14.961,415.359c0,0.002,0,0.002,0,0.002c-0.176,4.846,1.581,9.435,4.948,12.926
				c3.367,3.489,7.891,5.412,12.741,5.412h75.289c9.574,0,17.348-7.495,17.689-17.064l15.303-425.001
				c0.19-5.202-1.908-10.199-5.753-13.71C1336.467,1450.548,1332.211,1448.918,1327.82,1448.918z M1209.545,1890.625h0.049H1209.545
				z"/>
		</g>
		<g>
			<path style="fill:#660107;" d="M1294.359,2595.748c-3.069,0-6.158-0.449-9.189-1.362l-81.941-24.701
				c-16.391-4.968-27.405-20.368-26.795-37.457l18.987-527.673c0.737-20.183,17.567-36.322,37.677-36.322
				c0.249,0,0.493,0.002,0.747,0.007l75.187,1.398c10.155,0.164,19.626,4.323,26.643,11.709
				c7.032,7.403,10.706,17.104,10.345,27.314l-20.1,556.578c-0.356,9.862-5.397,19.129-13.488,24.784c0,0-0.005,0-0.005,0.005
				C1307.032,2593.801,1300.747,2595.748,1294.359,2595.748z M1306.705,2581.836h0.049H1306.705z M1233.109,1988.22
				c-9.462,0-17.362,7.581-17.708,17.06l-18.987,527.666c-0.288,8.027,4.894,15.269,12.599,17.606l81.926,24.696
				c3.435,1.03,7.09,0.454,10.042-1.601c2.977-2.088,4.836-5.499,4.963-9.13l20.1-556.569c0.171-4.794-1.557-9.357-4.86-12.836
				c-3.289-3.465-7.729-5.414-12.497-5.492l-75.226-1.398C1233.343,1988.22,1233.226,1988.22,1233.109,1988.22z"/>
		</g>
		<g>
			<path style="fill:#660107;" d="M1464.072,2646.693c-3.66,0-7.349-0.537-10.97-1.63l-61.797-18.641
				c-16.25-4.904-27.268-20.178-26.79-37.149l16.367-581.011c0.586-20.57,17.762-37.035,38.369-36.62l61.719,1.132
				c10.125,0.185,19.558,4.323,26.556,11.648c6.998,7.324,10.701,16.935,10.423,27.061l-16.293,598.52
				c-0.317,11.833-6.007,22.598-15.605,29.527C1479.516,2644.248,1471.865,2646.693,1464.072,2646.693z M1418.558,1991.621
				c-9.52,0-17.425,7.651-17.699,17.206l-16.367,581.011c-0.224,7.969,4.953,15.142,12.58,17.445l61.797,18.641
				c5.338,1.61,10.974,0.659,15.479-2.596c4.509-3.255,7.178-8.31,7.329-13.868l16.294-598.525l0,0
				c0.127-4.753-1.61-9.267-4.894-12.707c-3.289-3.44-7.72-5.385-12.478-5.473l-61.719-1.132
				C1418.773,1991.621,1418.666,1991.621,1418.558,1991.621z"/>
		</g>
		<g>
			<polygon style="fill:#8E828B;" points="3330.025,2696.121 3330.025,2586.605 3542.095,2572.73 3543.086,2683.734 			"/>
		</g>
		<g>
			<path style="fill:#660107;" d="M1483.518,1929.312h-61.636c-10.267,0-19.865-4.055-27.019-11.416
				c-7.159-7.361-10.94-17.069-10.652-27.334l12.38-439.54c0.517-18.394,14.112-33.639,32.323-36.249l61.465-8.815
				c11.018-1.574,22.11,1.762,30.43,9.169c8.31,7.407,12.902,18.038,12.599,29.166l-12.214,448.356
				C1520.633,1913.207,1504.086,1929.312,1483.518,1929.312z M1495.746,1425.562c-0.839,0-1.683,0.061-2.528,0.181l-61.465,8.818
				c-8.554,1.225-14.942,8.386-15.186,17.025l-12.38,439.538c-0.137,4.821,1.64,9.381,5.002,12.841
				c3.362,3.457,7.871,5.36,12.692,5.36h61.636c9.662,0,17.435-7.566,17.699-17.223l12.214-448.356l0,0
				c0.141-5.224-2.015-10.216-5.919-13.695C1504.242,1427.138,1500.055,1425.562,1495.746,1425.562z"/>
		</g>
		<g>
			<path style="fill:#660107;" d="M2230.357,2772.541c-0.986,0-1.971-0.117-2.933-0.346l-129.338-31.221
				c-5.607-1.356-9.559-6.378-9.559-12.146v-157.996c0-3.865,1.791-7.51,4.845-9.877c3.055-2.366,7.027-3.172,10.775-2.22
				l154.824,40.029l314.519-7.3c3.279-0.186,6.612,1.2,9.018,3.552c2.406,2.352,3.762,5.573,3.762,8.935v136.135
				c0,6.617-5.163,12.087-11.765,12.472l-343.422,19.963C2230.84,2772.536,2230.596,2772.541,2230.357,2772.541z M2113.512,2718.991
				l117.973,28.478l329.802-19.172v-111.561l-303.471,7.046c-1.078,0.063-2.293-0.103-3.416-0.39l-140.888-36.427V2718.991z"/>
		</g>
		<g>
			<path style="fill:#660107;" d="M3330.027,2708.612c-3.177,0-6.246-1.21-8.574-3.406c-2.498-2.362-3.918-5.646-3.918-9.086
				v-109.516c0-6.583,5.109-12.033,11.677-12.468l212.069-13.873c3.43-0.205,6.797,0.976,9.315,3.313
				c2.518,2.337,3.962,5.607,3.992,9.042l0.991,111.004c0.059,6.661-5.119,12.195-11.765,12.585l-213.059,12.385
				C3330.51,2708.607,3330.266,2708.612,3330.027,2708.612z M3342.519,2598.305v84.576l187.968-10.926l-0.766-85.898
				L3342.519,2598.305z"/>
		</g>
		<g>
			<path style="fill:#E1EDEF;" d="M2336.85,2422.402l-2.598,105.233l-1.998,80.05l-0.05,1.85l-74.703,1.748l-97.039-25.084
				l4.397-75.002l6.146-104.035c0.75-12.293,12.142-21.086,24.185-18.639l45.371,9.145l27.683,5.597l47.77-1.549
				C2327.607,2401.314,2337.15,2410.809,2336.85,2422.402z"/>
		</g>
		<g>
			<path style="fill:#BF9BA1;" d="M2332.254,2607.685l-0.05,1.85l-74.703,1.748l-97.039-25.084l4.397-75.002l6.146-104.035
				c0.75-12.293,12.142-21.086,24.185-18.639l45.371,9.145c-3.947,33.23-14.091,143.411,19.289,173.142
				C2279.386,2588.248,2308.418,2599.639,2332.254,2607.685z"/>
		</g>
		<g>
			<polygon style="fill:#F76D31;" points="2334.252,2527.635 2332.254,2607.685 2332.204,2609.534 2257.501,2611.282 
				2160.462,2586.198 2164.859,2511.197 2240.461,2527.885 2259.599,2532.083 			"/>
		</g>
		<g>
			<path style="fill:#CC3D0A;" d="M2332.254,2607.685l-0.05,1.85l-74.703,1.748l-97.039-25.084l4.397-75.002l75.603,16.689
				c3.548,18.588,9.594,34.179,19.388,42.923C2279.386,2588.248,2308.418,2599.639,2332.254,2607.685z"/>
		</g>
		<g>
			<path style="fill:#660107;" d="M2257.528,2623.787c-1.054,0-2.103-0.132-3.128-0.4l-97.068-25.092
				c-5.778-1.498-9.696-6.871-9.344-12.834l10.55-179.047c0.561-9.457,5.182-18.201,12.692-23.989
				c7.505-5.782,17.152-8.017,26.429-6.148l71.654,14.444l46.284-1.498c9.057-0.239,17.743,3.167,24.101,9.476
				c6.358,6.314,9.882,15.073,9.657,24.028l-4.646,187.143c-0.166,6.661-5.533,12.024-12.194,12.175l-74.694,1.737
				C2257.723,2623.787,2257.625,2623.787,2257.528,2623.787z M2332.222,2609.558h0.049H2332.222z M2173.533,2576.678l85.439,22.086
				l61.055-1.42l4.353-175.237c0.073-2.894-1.401-4.797-2.284-5.675c-0.878-0.874-2.913-2.401-5.69-2.235l-47.733,1.542
				c-1.01,0.029-1.933-0.054-2.874-0.239l-73.079-14.732c-3.021-0.615-5.202,0.649-6.241,1.449c-1.044,0.805-2.82,2.606-2.996,5.666
				L2173.533,2576.678z"/>
		</g>
		<g>
			<path style="fill:#660107;" d="M2259.597,2544.594c-0.903,0-1.806-0.098-2.689-0.293l-94.716-20.885
				c-6.739-1.483-10.994-8.154-9.511-14.888c1.489-6.734,8.159-11.004,14.888-9.51l93.018,20.51l72.928-4.338
				c6.973-0.566,12.804,4.836,13.209,11.726c0.415,6.885-4.836,12.8-11.726,13.209l-74.66,4.446
				C2260.09,2544.584,2259.845,2544.594,2259.597,2544.594z"/>
		</g>
		<g>
			<path style="fill:#1BABEA;" d="M666.901,1559.095l-8.594,163.697l-8.095,154.802c-0.65,12.892-11.593,22.835-24.485,22.336
				l-43.423-1.799c-12.992-0.5-23.135-11.542-22.586-24.534l4.697-111.48l8.445-199.974c0.5-11.593,9.394-21.137,20.937-22.436
				l46.921-5.297C655.159,1532.811,667.651,1544.554,666.901,1559.095z"/>
		</g>
		<g>
			<path style="fill:#33D7FC;" d="M666.901,1559.095l-8.594,163.697c-32.929,12.392-64.26,25.584-93.891,39.325l8.445-199.974
				c0.5-11.593,9.394-21.137,20.937-22.436l46.921-5.297C655.159,1532.811,667.651,1544.554,666.901,1559.095z"/>
		</g>
		<g>
			<path style="fill:#1BABEA;" d="M854.633,1537.958l-6.796,129.818l-11.443,217.463c-0.649,12.892-11.592,22.835-24.484,22.336
				l-97.688-3.997c-13.092-0.55-23.236-11.643-22.586-24.735l8.095-170.693l7.645-161.249c0.55-11.592,9.394-21.037,20.937-22.336
				l100.087-11.293C842.891,1511.675,855.383,1523.417,854.633,1537.958z"/>
		</g>
		<g>
			<path style="fill:#33D7FC;" d="M854.633,1537.958l-6.796,129.818c-52.217,10.943-101.636,24.685-148.107,40.374l7.645-161.249
				c0.55-11.592,9.394-21.037,20.937-22.336l100.087-11.293C842.891,1511.675,855.383,1523.417,854.633,1537.958z"/>
		</g>
		<g>
			<path style="fill:#1BABEA;" d="M1083.689,1511.775l-4.397,129.019l-8.594,253.59c-0.45,13.092-11.443,23.286-24.535,22.736
				l-135.015-5.547c-13.092-0.5-23.236-11.592-22.586-24.685l10.843-228.856l6.346-133.466c0.55-11.592,9.394-21.037,20.937-22.336
				l130.768-14.691C1071.747,1485.941,1084.139,1497.384,1083.689,1511.775z"/>
		</g>
		<g>
			<path style="fill:#33D7FC;" d="M1083.689,1511.775l-4.397,129.019c-62.911,1.599-122.923,7.695-179.887,17.239l6.346-133.466
				c0.55-11.592,9.394-21.037,20.937-22.336l130.768-14.691C1071.747,1485.941,1084.139,1497.384,1083.689,1511.775z"/>
		</g>
		<g>
			<path style="fill:#660107;" d="M626.669,1912.438c-0.493,0-0.981-0.01-1.474-0.029l-43.386-1.776
				c-9.638-0.395-18.543-4.524-25.077-11.624c-6.529-7.098-9.906-16.316-9.501-25.953l13.146-311.435
				c0.752-17.894,14.22-32.336,32.021-34.339l0,0l46.904-5.275c10.565-1.181,21.046,2.313,28.776,9.596
				c7.734,7.283,11.848,17.543,11.297,28.149l-16.664,318.486C661.701,1897.389,645.68,1912.436,626.669,1912.438z M595.19,1552.11
				c-5.475,0.615-9.618,5.058-9.847,10.562l-13.146,311.435c-0.127,2.962,0.913,5.8,2.923,7.986c2.01,2.184,4.748,3.453,7.715,3.574
				l43.381,1.776c5.983,0.281,11.223-4.47,11.545-10.516l16.659-318.481c0.234-4.465-2.074-7.342-3.474-8.659
				c-1.396-1.318-4.411-3.438-8.852-2.952L595.19,1552.11z"/>
		</g>
		<g>
			<path style="fill:#660107;" d="M812.86,1920.08c-0.493,0-0.986-0.01-1.483-0.029l-97.678-4.014
				c-9.676-0.4-18.602-4.553-25.14-11.694c-6.534-7.144-9.881-16.403-9.423-26.072l15.757-331.971
				c0.849-17.794,14.312-32.153,32.006-34.146l100.123-11.277c10.579-1.186,21.051,2.308,28.786,9.594
				c7.734,7.283,11.848,17.545,11.292,28.154l-18.211,347.26C847.892,1905.031,831.872,1920.077,812.86,1920.08z M831.13,1525.628
				c-0.42,0-0.859,0.024-1.313,0.076L729.7,1536.981c-0.005,0-0.005,0-0.005,0c-5.446,0.612-9.584,5.031-9.847,10.506
				l-15.757,331.966c-0.142,2.974,0.888,5.824,2.899,8.022c2.015,2.196,4.758,3.474,7.734,3.596l97.678,4.013
				c5.86,0.286,11.223-4.47,11.536-10.508l18.216-347.26c0.229-4.467-2.079-7.344-3.479-8.661
				C837.42,1527.473,834.863,1525.628,831.13,1525.628z M728.299,1524.567h0.049H728.299z"/>
		</g>
		<g>
			<path style="fill:#660107;" d="M1047.161,1929.656c-0.507,0-1.01-0.01-1.518-0.029l-135.018-5.546
				c-9.677-0.398-18.607-4.553-25.145-11.697c-6.534-7.144-9.881-16.406-9.418-26.075l17.206-362.34
				c0.849-17.799,14.312-32.16,32.016-34.148l130.767-14.693c10.448-1.159,20.827,2.242,28.532,9.364s11.921,17.225,11.57,27.714
				v0.002l-12.966,382.582c-0.332,9.684-4.421,18.646-11.526,25.236C1064.933,1926.267,1056.281,1929.656,1047.161,1929.656z
				 M1060.132,1499.883c-0.424,0-0.854,0.024-1.288,0.073l-130.767,14.693c-5.446,0.612-9.589,5.031-9.852,10.509l-17.206,362.34
				c-0.141,2.977,0.888,5.824,2.899,8.02c2.01,2.198,4.758,3.477,7.734,3.599l135.018,5.546c2.967,0.134,5.822-0.922,8.003-2.952
				c2.186-2.028,3.445-4.785,3.543-7.766l12.966-382.577c0.112-3.277-1.152-6.307-3.557-8.53
				C1065.533,1500.907,1062.913,1499.883,1060.132,1499.883z M1083.667,1511.787h0.049H1083.667z"/>
		</g>
		<g>
			<path style="fill:#660107;" d="M3542.105,2585.223c-0.215,0-0.429-0.005-0.644-0.015c-6.89-0.351-12.189-6.222-11.843-13.112
				c8.783-172.748,14.585-286.875-17.753-358.988c-39.111-79.125-312.084-217.141-314.836-218.525
				c-3.416-1.718-5.856-4.902-6.622-8.642l-119.598-581.282c-353.313-41.497-774.83-78.752-1288.262-113.859
				c-6.88-0.471-12.077-6.432-11.609-13.314c0.468-6.885,6.456-12.085,13.317-11.611c518.17,35.432,942.893,73.057,1298.436,115.025
				c5.348,0.632,9.687,4.616,10.775,9.889l120.198,584.222c40.458,20.695,280.605,146.114,320.799,227.455
				c34.998,78.022,29.073,194.536,20.109,370.899C3554.231,2580.04,3548.712,2585.223,3542.105,2585.223z"/>
		</g>
		<g>
			<path style="fill:#660107;" d="M3467.343,2590.112c-6.9,0-12.492-5.592-12.492-12.492v-159.948
				c0-17.216,13.468-31.445,30.664-32.387l62.788-3.426c6.788-0.376,12.78,4.904,13.151,11.794
				c0.376,6.885-4.904,12.775-11.794,13.151l-62.783,3.426c-3.948,0.219-7.042,3.484-7.042,7.442v159.948
				C3479.835,2584.52,3474.242,2590.112,3467.343,2590.112z"/>
		</g>
		<g>
			<path style="fill:#660107;" d="M3471.344,2513.49c-6.661,0-12.195-5.256-12.473-11.975c-0.283-6.895,5.07-12.712,11.965-13
				l71.732-2.972c6.773-0.205,12.712,5.07,13,11.965c0.283,6.895-5.07,12.712-11.965,13l-71.732,2.972
				C3471.695,2513.486,3471.52,2513.49,3471.344,2513.49z"/>
		</g>
		<g>
			<path style="fill:#660107;" d="M3357.314,2419.755c-0.005,0-0.01,0-0.02,0l-843.083-1.479c-5.519-0.01-9.984-4.494-9.974-10.013
				c0.01-5.509,4.485-9.974,9.994-9.974c0.005,0,0.01,0,0.02,0l843.083,1.479c5.519,0.01,9.984,4.494,9.974,10.013
				C3367.298,2415.29,3362.823,2419.755,3357.314,2419.755z"/>
		</g>
		<g>
			<path style="fill:#660107;" d="M2514.231,2495.958c-5.485,0-9.95-4.421-9.994-9.911c-0.044-5.519,4.392-10.033,9.911-10.077
				l841.194-6.871c0.029,0,0.059,0,0.083,0c5.485,0,9.95,4.421,9.994,9.911c0.044,5.519-4.392,10.033-9.911,10.077l-841.194,6.871
				C2514.285,2495.958,2514.256,2495.958,2514.231,2495.958z"/>
		</g>
		<g>
			<path style="fill:#660107;" d="M2508.156,2563.844c-5.402,0-9.847-4.309-9.984-9.74c-0.142-5.514,4.216-10.101,9.735-10.243
				l845.82-21.671c0.083-0.005,0.171-0.005,0.259-0.005c5.402,0,9.847,4.309,9.984,9.74c0.141,5.514-4.216,10.101-9.735,10.243
				l-845.82,21.671C2508.332,2563.844,2508.244,2563.844,2508.156,2563.844z"/>
		</g>
		<g>
			<path style="fill:#660107;" d="M2768.534,2620.815c-5.519,0-9.994-4.475-9.994-9.994v-260.681c0-5.519,4.475-9.994,9.994-9.994
				s9.994,4.475,9.994,9.994v260.681C2778.528,2616.341,2774.053,2620.815,2768.534,2620.815z"/>
		</g>
		<g>
			<path style="fill:#660107;" d="M3141.683,2601.58c-5.519,0-9.994-4.475-9.994-9.994v-241.445c0-5.519,4.475-9.994,9.994-9.994
				c5.519,0,9.994,4.475,9.994,9.994v241.445C3151.677,2597.105,3147.202,2601.58,3141.683,2601.58z"/>
		</g>
		<g>
			<path style="fill:#660107;" d="M3097.536,1484.999c-0.625,0-1.254-0.049-1.893-0.144
				c-415.027-63.107-850.461-99.71-1294.195-108.791c-6.9-0.141-12.375-5.848-12.234-12.746c0.137-6.81,5.704-12.236,12.482-12.236
				c0.088,0,0.176,0,0.259,0.002c444.823,9.106,881.345,45.801,1297.445,109.069c6.822,1.037,11.507,7.408,10.472,14.229
				C3108.93,1480.566,3103.607,1484.999,3097.536,1484.999z"/>
		</g>
		<g>
			<path style="fill:#660107;" d="M3202.651,1995.916c-0.146,0-0.288-0.002-0.434-0.007l-1256.582-42.546l-93.515,6.439
				c-6.919,0.454-12.848-4.724-13.322-11.604c-0.473-6.883,4.724-12.848,11.604-13.322l94.155-6.483
				c0.429-0.032,0.849-0.042,1.283-0.022l1257.226,42.568c6.895,0.234,12.292,6.012,12.063,12.907
				C3214.899,1990.597,3209.351,1995.916,3202.651,1995.916z"/>
		</g>
		<g>
			<path style="fill:#660107;" d="M1809.209,1396.873c33.45,143.474,57.567,288.839,72.405,435.425
				c0.388,4.203-2.703,7.925-6.907,8.315c-3.943,0.365-7.473-2.384-8.214-6.19c-20.521-108.271-39.432-216.784-56.725-325.614
				c-5.747-36.28-10.91-72.688-15.573-109.158C1793.068,1390.322,1806.818,1387.551,1809.209,1396.873L1809.209,1396.873z"/>
		</g>
		<g>
			<path style="fill:#660107;" d="M2286.883,2194.145c103.102-7.61,206.119-4.619,309.162-4.836
				c223.06,0.409,550.608,2,772.772,4.401c0,0,154.547,1.799,154.547,1.799c15.918,0.485,16.707,24.454-0.201,24.984
				c-282.902-0.816-643.242-4.645-927.3-8.667c-103.026-1.87-206.077-0.531-309.044-9.792c-2.177-0.196-3.782-2.12-3.587-4.297
				C2283.409,2195.78,2284.984,2194.284,2286.883,2194.145L2286.883,2194.145z"/>
		</g>
		<g>
			<path style="fill:#660107;" d="M2453.005,2210.58c-2.44,0-4.899-0.708-7.061-2.191
				c-131.621-90.339-283.127-182.781-400.417-253.22c-5.914-3.552-7.832-11.226-4.28-17.14c3.552-5.914,11.228-7.827,17.142-4.277
				c117.592,70.622,269.518,163.32,401.696,254.035c5.685,3.904,7.134,11.682,3.23,17.372
				C2460.891,2208.687,2456.982,2210.58,2453.005,2210.58z"/>
		</g>
		<g>
			<path style="fill:#660107;" d="M3386.485,2215.538c-2.889,0-5.792-0.995-8.154-3.03l-254.718-219.623
				c-5.221-4.506-5.807-12.394-1.303-17.618c4.504-5.224,12.395-5.809,17.621-1.305l254.718,219.623
				c5.221,4.504,5.807,12.395,1.303,17.621C3393.483,2214.069,3389.994,2215.538,3386.485,2215.538z"/>
		</g>
		<g>
			<path style="fill:#660107;" d="M534.081,1488.052c-0.259,0-0.522-0.007-0.791-0.024c-6.876-0.432-12.107-6.339-11.687-13.219
				c0.322-5.294,9.223-130.265,123.677-177.301c0.561-0.229,1.142-0.42,1.732-0.566l1344.54-334.626
				c6.656-1.681,13.468,2.406,15.137,9.103c1.669,6.695-2.411,13.473-9.106,15.139L653.947,1320.959
				c-98.956,41.263-107.11,150.738-107.408,155.391C546.114,1482.962,540.62,1488.052,534.081,1488.052z"/>
		</g>
		<g>
			<path style="fill:#F9D230;" d="M3202.656,1299.158v90.193l-1426.552-141.711l7.295-105.084
				c150.805-142.01,352.528-250.293,734.888-238.85C2822.146,924.145,3097.521,1092.989,3202.656,1299.158z"/>
		</g>
		<g style="opacity:0.64;">
			<path style="fill:#FFFFFF;" d="M3202.656,1299.158v90.193l-4.947-0.5v-61.011c-105.134-206.17-380.51-375.014-684.369-395.452
				c-379.711-11.343-581.285,95.34-731.739,235.902l1.798-25.734c150.805-142.01,352.528-250.293,734.888-238.85
				C2822.146,924.145,3097.521,1092.989,3202.656,1299.158z"/>
		</g>
		<g>
			<path style="fill:#FFA403;" d="M3129.802,1313.499l-47.67-5.346c-271.33-316.851-856.811-360.623-1153.024-129.519l-16.89-1.899
				C2205.084,902.858,2863.669,949.279,3129.802,1313.499z"/>
		</g>
		<g>
			<path style="fill:#660107;" d="M3202.656,1401.844c-0.41,0-0.82-0.02-1.235-0.061l-1426.553-141.71
				c-6.724-0.668-11.697-6.558-11.228-13.297l7.295-105.085c0.22-3.135,1.61-6.073,3.899-8.227
				c88.436-83.278,178.945-140.344,284.835-179.589c128.333-47.565,278.399-68.06,458.993-62.654
				c298.933,20.097,584.588,185.503,695.124,402.264c0.893,1.757,1.361,3.701,1.361,5.675v90.192c0,3.528-1.493,6.893-4.109,9.259
				C3208.736,1400.702,3205.74,1401.844,3202.656,1401.844z M1789.404,1236.408l1400.759,139.148v-73.374
				c-107.72-208.028-383.792-366.578-672.716-386.012c-402.325-12.046-591.171,109.992-721.928,232.142L1789.404,1236.408z"/>
		</g>
		<g>
			<path style="fill:#660107;" d="M3129.796,1326.015c-0.464,0-0.932-0.024-1.4-0.078l-1217.579-136.774
				c-4.846-0.544-8.93-3.857-10.462-8.483c-1.532-4.628-0.234-9.725,3.323-13.056c142.015-132.797,375.711-198.062,625.036-174.548
				c121.984,11.497,240.84,44.323,343.719,94.93c111.937,55.065,201.919,128.462,267.444,218.149
				c2.923,4.001,3.206,9.352,0.717,13.639C3138.345,1323.673,3134.212,1326.015,3129.796,1326.015z M1941.569,1167.474
				l1160.364,130.348c-124.507-153.497-337.161-257.404-575.561-279.873C2295.912,996.213,2079.91,1051.915,1941.569,1167.474z"/>
		</g>
		<g>
			<polygon style="fill:#F76D31;" points="2222.106,1068.204 2449.612,1093.788 2449.612,1143.856 2222.106,1118.272 			"/>
		</g>
		<g>
			<polygon style="fill:#F76D31;" points="2877.061,1146.105 2877.061,1196.173 2689.729,1175.087 2689.729,1125.018 			"/>
		</g>
		<g>
			<path style="fill:#660107;" d="M2449.614,1156.349c-0.464,0-0.932-0.027-1.396-0.078l-227.508-25.584
				c-6.319-0.71-11.097-6.056-11.097-12.414v-50.069c0-3.557,1.518-6.944,4.167-9.313c2.655-2.369,6.212-3.487,9.72-3.101
				l227.508,25.584c6.319,0.71,11.096,6.056,11.096,12.414v50.069c0,3.557-1.518,6.944-4.167,9.313
				C2455.635,1155.226,2452.668,1156.349,2449.614,1156.349z M2234.598,1107.105l202.524,22.776v-24.928l-202.524-22.774V1107.105z"
				/>
		</g>
		<g>
			<path style="fill:#660107;" d="M2877.06,1208.664c-0.464,0-0.932-0.027-1.396-0.078l-187.328-21.085
				c-6.319-0.713-11.097-6.056-11.097-12.414v-50.069c0-3.557,1.518-6.944,4.167-9.315c2.65-2.369,6.188-3.487,9.72-3.099
				l187.328,21.085c6.319,0.713,11.096,6.056,11.096,12.414v50.068c0,3.557-1.518,6.944-4.167,9.315
				C2883.081,1207.545,2880.115,1208.664,2877.06,1208.664z M2702.223,1163.922l162.344,18.272v-24.926l-162.344-18.272V1163.922z"
				/>
		</g>
		<g>
			<path style="fill:#660107;" d="M1739.65,1297.503c-7.447,0-14.698-2.64-20.446-7.554c-7.012-5.992-11.033-14.717-11.033-23.94
				v-116.482c0-11.38,4.328-22.127,12.185-30.259c6.846-7.083,70.79-70.92,206.384-130.958
				c145.963-64.635,312.011-97.4,493.557-97.4c0.62,0,1.24,0,1.864,0c6.9,0.007,12.487,5.609,12.478,12.507
				c-0.01,6.895-5.602,12.477-12.492,12.477c-0.473-0.012-1.24,0-1.84,0c-463.283,0-679.846,218.525-681.983,220.735
				c-3.333,3.447-5.168,8.03-5.168,12.897v116.482c0,2.608,1.43,4.219,2.279,4.946c0.854,0.73,2.654,1.879,5.246,1.483l12.58-1.988
				c6.841-1.091,13.214,3.572,14.293,10.389c1.074,6.815-3.577,13.212-10.389,14.288l-12.585,1.989
				C1742.934,1297.373,1741.285,1297.503,1739.65,1297.503z"/>
		</g>
		<g>
			<path style="fill:#660107;" d="M565.009,1394.9c-5.826,0-11.038-4.097-12.234-10.028c-1.362-6.763,3.016-13.351,9.779-14.712
				l1155.64-232.878c6.744-1.361,13.351,3.013,14.717,9.779c1.362,6.763-3.016,13.351-9.779,14.712l-1155.64,232.878
				C566.658,1394.819,565.828,1394.9,565.009,1394.9z"/>
		</g>
	</g>
</g>
</svg>
